<svg xmlns="http://www.w3.org/2000/svg" width="60" height="60" viewBox="0 0 60 60">
  <g id="fb" transform="translate(-44.809 -83.966)">
    <g id="Group_6" data-name="Group 6" transform="translate(44.809 83.966)">
      <g id="Group_5" data-name="Group 5" transform="translate(21.193 11.041)">
        <path id="Path_4" data-name="Path 4" d="M77.353,121.585v18.332a.478.478,0,0,0,.478.477h6.807a.478.478,0,0,0,.477-.477V121.286h4.936a.478.478,0,0,0,.476-.437L91,115.236a.478.478,0,0,0-.476-.518h-5.41v-3.982a1.69,1.69,0,0,1,1.69-1.69h3.8a.477.477,0,0,0,.477-.478v-5.613a.477.477,0,0,0-.477-.478H84.182a6.829,6.829,0,0,0-6.829,6.829v5.412h-3.4a.478.478,0,0,0-.477.478v5.613a.477.477,0,0,0,.477.477h3.4Z" transform="translate(-73.472 -102.477)" fill="#fff" fill-rule="evenodd"/>
      </g>
      <path id="Path_5" data-name="Path 5" d="M74.809,83.966a30,30,0,1,0,30,30A30.034,30.034,0,0,0,74.809,83.966Zm26.152,30A26.153,26.153,0,1,1,74.809,87.813,26.182,26.182,0,0,1,100.961,113.966Z" transform="translate(-44.809 -83.966)" fill="#fff"/>
    </g>
  </g>
</svg>
