<svg xmlns="http://www.w3.org/2000/svg" width="60" height="60" viewBox="0 0 60 60">
  <g id="linkIn" transform="translate(-44.809 -267.981)">
    <g id="Group_13" data-name="Group 13" transform="translate(57.536 278.337)">
      <path id="Path_10" data-name="Path 10" d="M65.576,295.838h7.168v23.025H65.576ZM69.161,284.4a4.15,4.15,0,1,1-4.155,4.147,4.15,4.15,0,0,1,4.155-4.147m8.074,34.466h7.153V307.474c0-3,.567-5.91,4.293-5.91,3.668,0,3.72,3.433,3.72,6.105v11.194h7.151V306.235c0-6.2-1.335-10.966-8.582-10.966a7.524,7.524,0,0,0-6.777,3.719H84.1v-3.15H77.235Z" transform="translate(-65.006 -284.397)" fill="#fff"/>
    </g>
    <path id="Path_11" data-name="Path 11" d="M74.809,267.981a30,30,0,1,0,30,30A30.033,30.033,0,0,0,74.809,267.981Zm0,56.153a26.153,26.153,0,1,1,26.153-26.153A26.182,26.182,0,0,1,74.809,324.134Z" fill="#fff"/>
  </g>
</svg>
