<svg xmlns="http://www.w3.org/2000/svg" width="60" height="60" viewBox="0 0 60 60">
  <g id="skype" transform="translate(-380.251 -360.225)">
    <g id="Group_11" data-name="Group 11" transform="translate(390.754 370.794)">
      <path id="Path_8" data-name="Path 8" d="M399.508,397.666a18.182,18.182,0,0,0,21.6,17.866,10.618,10.618,0,0,0,14.5-14.693,18.436,18.436,0,0,0,.28-3.173,18.186,18.186,0,0,0-21.54-17.878A10.616,10.616,0,0,0,399.8,394.434,18.207,18.207,0,0,0,399.508,397.666Zm18.386-12.925c5.867.344,9.3,2.924,9.636,5.334a2.471,2.471,0,0,1-2.7,2.8c-2.654,0-2.925-3.537-7.494-3.537-2.061,0-3.8.857-3.8,2.716,0,3.884,14.641,1.628,14.641,10.181,0,4.93-3.946,8.16-9.836,8.16-5.181,0-10.388-2.349-10.361-6.392a2.269,2.269,0,0,1,2.129-2.34c3.051,0,3.023,4.533,7.881,4.533,3.407,0,4.571-1.859,4.571-3.155,0-4.679-14.728-1.81-14.728-10.611C407.832,387.665,411.745,384.38,417.894,384.741Z" transform="translate(-398.221 -378.246)" fill="#fff"/>
    </g>
    <path id="Path_9" data-name="Path 9" d="M410.251,360.225a30,30,0,1,0,30,30A30.034,30.034,0,0,0,410.251,360.225Zm0,56.152A26.153,26.153,0,1,1,436.4,390.225,26.183,26.183,0,0,1,410.251,416.377Z" transform="translate(0 0)" fill="#fff"/>
  </g>
</svg>
