<svg xmlns="http://www.w3.org/2000/svg" width="60" height="60" viewBox="0 0 60 60">
  <g id="twiter" transform="translate(-156.502 -84.096)">
    <g id="Group_9" data-name="Group 9" transform="translate(156.502 84.096)">
      <g id="Group_8" data-name="Group 8" transform="translate(10.647 14.13)">
        <path id="Path_6" data-name="Path 6" d="M213.1,109.5a16.137,16.137,0,0,1-3.935,1.113c.627-.106,1.53-1.241,1.9-1.7a7.123,7.123,0,0,0,1.286-2.361c.034-.067.054-.152-.013-.2a.227.227,0,0,0-.209.017,19.879,19.879,0,0,1-4.625,1.77.309.309,0,0,1-.32-.085,3.772,3.772,0,0,0-.4-.413,8.163,8.163,0,0,0-2.24-1.372,7.8,7.8,0,0,0-3.435-.554,8.219,8.219,0,0,0-3.26.921,8.413,8.413,0,0,0-2.629,2.147,8.084,8.084,0,0,0-1.57,3.145,8.5,8.5,0,0,0-.083,3.321c.025.185.008.211-.16.185-6.35-.945-11.615-3.217-15.888-8.087-.185-.212-.286-.212-.439.016-1.869,2.8-.962,7.307,1.374,9.52.311.3.631.59.976.859a8.11,8.11,0,0,1-3.066-.859c-.185-.118-.278-.05-.295.16a4.827,4.827,0,0,0,.051.91,8.148,8.148,0,0,0,5.021,6.5,4.689,4.689,0,0,0,1.019.311,9.083,9.083,0,0,1-3.007.094c-.219-.043-.3.067-.219.277,1.323,3.607,4.179,4.68,6.318,5.291.286.05.573.05.86.117-.018.026-.035.026-.051.051-.71,1.082-3.169,1.887-4.315,2.287a15.453,15.453,0,0,1-6.553.839c-.352-.052-.426-.048-.522,0s-.012.143.1.235c.447.295.9.556,1.365.81a21.689,21.689,0,0,0,4.38,1.751c7.873,2.174,16.74.577,22.651-5.3,4.641-4.612,6.268-10.971,6.268-17.34,0-.249.295-.387.47-.518a15.631,15.631,0,0,0,3.153-3.206,1.248,1.248,0,0,0,.276-.614V109.5C213.325,109.4,213.252,109.429,213.1,109.5Z" transform="translate(-174.619 -105.696)" fill="#fff"/>
      </g>
      <path id="Path_7" data-name="Path 7" d="M186.5,84.1a30,30,0,1,0,30,30A30.034,30.034,0,0,0,186.5,84.1Zm0,56.153A26.153,26.153,0,1,1,212.655,114.1,26.182,26.182,0,0,1,186.5,140.249Z" transform="translate(-156.502 -84.096)" fill="#fff"/>
    </g>
  </g>
</svg>
