<svg xmlns="http://www.w3.org/2000/svg" width="673" height="336" viewBox="0 0 673 336">
  <defs>
    <style>
      .cls-1, .cls-2, .cls-3 {
        fill: #fff;
      }

      .cls-1 {
        fill-rule: evenodd;
      }

      .cls-3 {
        font-size: 16.251px;
        font-family: "Bookman Old Style";
        font-weight: 700;
      }
    </style>
  </defs>
  <path class="cls-1" d="M216.532,124h75L140,394H65Z" transform="translate(-65 -124)"/>
  <path id="Rectangle_3_copy" data-name="Rectangle 3 copy" class="cls-1" d="M345.532,124h75L269,394H194Z" transform="translate(-65 -124)"/>
  <path id="Rectangle_3_copy_2" data-name="Rectangle 3 copy 2" class="cls-1" d="M345.154,124H270L421.845,394H497Z" transform="translate(-65 -124)"/>
  <path id="Rectangle_3_copy_4" data-name="Rectangle 3 copy 4" class="cls-1" d="M573.154,124H498L649.845,394H725Z" transform="translate(-65 -124)"/>
  <path id="Rectangle_3_copy_5" data-name="Rectangle 3 copy 5" class="cls-1" d="M586.154,394H511L662.845,124H738Z" transform="translate(-65 -124)"/>
  <path class="cls-1" d="M215.593,133.909l3.469-1.992,63.91,111.316-3.469,1.991Z" transform="translate(-65 -124)"/>
  <path id="Rectangle_3_copy_3" data-name="Rectangle 3 copy 3" class="cls-1" d="M459.154,124H384L535.845,394H611Z" transform="translate(-65 -124)"/>
  <path class="cls-2" d="M319,0H442a75,75,0,0,1,75,75v4a75,75,0,0,1-75,75H319a0,0,0,0,1,0,0V0A0,0,0,0,1,319,0Z"/>
  <text id="MARKETING_PTE._LMD." data-name="MARKETING PTE. LMD." class="cls-3" transform="matrix(3.159, 0, 0, 3.916, 0, 334.494)">MARKETING PTE. LMD.</text>
</svg>
